<svg width="512" height="512" viewBox="0 0 512 512" xmlns="http://www.w3.org/2000/svg">
  <defs>
    <linearGradient id="bg" x1="0" y1="0" x2="1" y2="1">
      <stop offset="0%" stop-color="#0C64C5"/>
      <stop offset="100%" stop-color="#63B3FF"/>
    </linearGradient>
    <linearGradient id="frame" x1="0" y1="0" x2="1" y2="1">
      <stop offset="0%" stop-color="#031B36"/>
      <stop offset="100%" stop-color="#083A6B"/>
    </linearGradient>
    <linearGradient id="mountain" x1="0" y1="0" x2="1" y2="1">
      <stop offset="0%" stop-color="#8CF0FF"/>
      <stop offset="100%" stop-color="#27C5D8"/>
    </linearGradient>
    <linearGradient id="wave" x1="0" y1="0" x2="1" y2="1">
      <stop offset="0%" stop-color="#68E1FD"/>
      <stop offset="100%" stop-color="#0D9AF2"/>
    </linearGradient>
  </defs>
  <rect x="32" y="32" width="448" height="448" rx="120" fill="url(#bg)"/>
  <rect x="116" y="132" width="280" height="220" rx="36" fill="url(#frame)" stroke="#8CF0FF" stroke-width="8" opacity="0.95"/>
  <circle cx="340" cy="186" r="30" fill="#FDE68A"/>
  <path d="M148 324 L212 236 L260 292 L284 266 L364 356 L148 356 Z" fill="url(#mountain)"/>
  <path d="M186 132h92c46 0 84 38 84 84c0 46-38 84-84 84h-24c-16 0-30 14-30 30c0 16 14 30 30 30h118" stroke="url(#wave)" stroke-width="26" stroke-linecap="round" fill="none" opacity="0.85"/>
</svg>